<?xml version="1.0" encoding="utf-8"?>
<!-- Generator: Adobe Illustrator 25.0.1, SVG Export Plug-In . SVG Version: 6.00 Build 0)  -->
<svg version="1.0" id="katman_1" xmlns="http://www.w3.org/2000/svg" xmlns:xlink="http://www.w3.org/1999/xlink" x="0px" y="0px"
	 viewBox="0 0 201 135" style="enable-background:new 0 0 201 135;" xml:space="preserve">
<style type="text/css">
	.st0{fill-rule:evenodd;clip-rule:evenodd;fill:#004288;}
	.st1{fill-rule:evenodd;clip-rule:evenodd;fill:#FEFEFE;}
</style>
<g>
	<path class="st0" d="M31,96.8h139V37.5H31V96.8z"/>
	<path class="st1" d="M56,86.8h-0.5v0.6c0.9,0,1.8,0,2.7,0c0.9,0,1.8,0.1,2.7,0.1v-0.6h-0.5c-0.7,0-1.3,0-1.3-0.8v-7.2
		c0.8-0.5,2.1-1.2,2.9-1.2c1.4,0,2.3,0.7,2.3,2.1V86c0,0.8-0.5,0.8-1.2,0.8h-0.5v0.6c0.9,0,1.8,0,2.7,0c0.9,0,1.8,0.1,2.7,0.1v-0.6
		h-0.5c-0.7,0-1.3,0-1.3-0.8v-6.3c0-1.9-0.8-3.4-2.9-3.4c-1.7,0-2.9,0.8-4.4,1.8v-1.6c0-0.2-0.1-0.2-0.2-0.2
		c-1.2,0.5-2.3,0.8-3.4,1.2v0.5c1.2,0.5,1.5,0.7,1.5,1.6V86C57.2,86.8,56.7,86.8,56,86.8 M73.2,70.1c-0.6,0-1.2,0.6-1.2,1.2
		c0,0.6,0.6,1.2,1.2,1.2c0.7,0,1.2-0.6,1.2-1.2S73.8,70.1,73.2,70.1 M72.8,87.4c0.9,0,1.8,0,2.7,0v-0.6h-0.4c-0.7,0-1.3,0-1.3-0.8
		v-9.4c0-0.2,0-0.3-0.2-0.3c-0.2,0-0.3,0-0.5,0.1c-0.1,0.1-1.5,0.5-2.7,0.9v0.4c0.9,0.5,1.3,0.6,1.3,1.7V86c0,0.8-0.5,0.8-1.2,0.8
		h-0.5v0.6C71,87.4,71.9,87.4,72.8,87.4 M82,87.8l3.7-8.8c0.5-1.1,0.8-1.8,2-1.8v-0.6c-0.8,0-1.5,0.1-2.3,0.1c-0.6,0-1.2,0-1.8-0.1
		v0.6c1.1,0.1,1.4,0.1,1.3,0.7c0,0.6-0.2,1.2-0.5,1.9l-2.1,5l-1.8-4.6c-0.4-1.1-0.8-1.9-0.8-2.3c0-0.6,0.3-0.7,1.4-0.7v-0.6
		c-0.9,0-1.8,0.1-2.6,0.1c-0.8,0-1.7,0-2.5-0.1v0.6c1,0,1.2,0,2,1.9l3.5,8.6L82,87.8 M93.3,77c1.4,0,2.2,1,2.2,2.2
		c0,0.3-0.1,0.6-0.7,0.6h-4.4C90.6,78.1,91.7,77,93.3,77 M97.6,80.5c0-0.1,0-0.3,0-0.4c0-2.6-2.2-3.8-4.3-3.8
		c-1.8,0-5.1,1.4-5.1,6.2c0,1.6,0.8,5.3,4.8,5.3c2.1,0,3.5-1.3,4.7-2.8l-0.4-0.3c-0.9,0.9-2,1.6-3.4,1.6c-2,0-3.6-1.9-3.7-4.2
		c0-0.8,0-1.2,0-1.4h7.1L97.6,80.5 M102.3,87.4c1.1,0,2.2,0,3.6,0v-0.6h-1.4c-0.7,0-1.2,0-1.2-0.8v-5.7c0-1.5,1.4-2,1.9-2
		c0.9,0,0.9,0.6,1.7,0.6c0.7,0,1.2-0.6,1.2-1.2c0-0.9-0.8-1.3-1.4-1.3c-1.5,0-2.6,1.6-3.2,2.5h-0.1v-2.2c0-0.2-0.1-0.3-0.2-0.3
		c-0.2,0-1.2,0.6-3.1,1.4V78c0.4,0.2,1.3,0.3,1.3,1.1V86c0,0.8-0.5,0.8-1.2,0.8h-0.7v0.6C100.2,87.4,101.3,87.4,102.3,87.4
		 M109.8,87c0.9,0.5,2.1,0.8,3.1,0.8c3,0,4.4-1.7,4.4-3.3c0-3.8-5.9-3-5.9-5.8c0-1.1,1-1.6,2-1.6c1.6,0,2.5,0.9,2.8,2.4h0.6
		l-0.2-2.5c-1-0.5-2.1-0.7-2.9-0.7c-2.8,0-3.9,1.8-3.9,3.1c0,3.9,5.5,3,5.5,5.9c0,0.9-0.6,1.7-2.1,1.7c-1.8,0-2.9-1.4-3.2-3
		l-0.5,0.1L109.8,87 M124.9,68.3c-0.6,0-1.2,0.6-1.2,1.2c0,0.6,0.6,1.2,1.2,1.2c0.7,0,1.2-0.6,1.2-1.2
		C126.1,68.8,125.5,68.3,124.9,68.3 M122.2,87.4c0.9,0,1.8,0,2.7,0v-0.6h-0.4c-0.7,0-1.3,0-1.3-0.8v-9.4c0-0.2-0.1-0.3-0.2-0.3
		c-0.2,0-0.3,0-0.5,0.1c-0.1,0.1-1.5,0.5-2.7,0.9v0.4c0.9,0.5,1.3,0.6,1.3,1.7V86c0,0.8-0.5,0.8-1.2,0.8h-0.5v0.6
		C120.4,87.4,121.3,87.4,122.2,87.4 M134.1,78v-1.3h-3.8v-2.5H130c-1.3,2-2.1,2.4-3.4,3.4V78h1.7v7.5c0,1.4,0.8,2.3,2.4,2.3
		c1.4,0,2.5-0.8,3.4-1.7l-0.4-0.4c-0.6,0.5-1.1,0.7-1.8,0.7c-0.7,0-1.6-0.4-1.6-2.1V78L134.1,78 M140.7,77.2c1.4,0,2.2,1,2.2,2.2
		c0,0.3-0.1,0.6-0.7,0.6h-4.4C138.1,78.3,139.2,77.2,140.7,77.2 M145.1,80.7c0-0.1,0-0.3,0-0.4c0-2.6-2.2-3.8-4.3-3.8
		c-1.8,0-5.1,1.4-5.1,6.2c0,1.6,0.8,5.3,4.8,5.3c2.1,0,3.5-1.3,4.7-2.8l-0.4-0.3c-0.9,0.9-2,1.6-3.4,1.6c-2,0-3.6-1.9-3.7-4.2
		c0-0.8,0-1.2,0-1.4h7.1L145.1,80.7 M147.5,87.1c0.9,0.5,2.1,0.8,3.1,0.8c3,0,4.4-1.7,4.4-3.3c0-3.8-5.9-3-5.9-5.8c0-1,1-1.6,2-1.6
		c1.6,0,2.5,0.9,2.8,2.4h0.6l-0.2-2.5c-1-0.5-2.1-0.7-2.9-0.7c-2.8,0-3.9,1.8-3.9,3.1c0,3.9,5.5,3,5.5,5.9c0,0.9-0.6,1.7-2.1,1.7
		c-1.9,0-2.9-1.4-3.2-3l-0.5,0.1L147.5,87.1 M161.2,60.3c-0.6,0-1.2,0.6-1.2,1.2c0,0.6,0.6,1.2,1.2,1.2c0.7,0,1.2-0.6,1.2-1.2
		C162.4,60.8,161.8,60.3,161.2,60.3 M159.7,87.4c0.9,0,1.8,0,2.7,0v-0.6h-0.4c-0.7,0-1.3,0-1.3-0.8v-9.4c0-0.2-0.1-0.3-0.2-0.3
		c-0.2,0-0.3,0-0.5,0.1c-0.1,0.1-1.5,0.5-2.7,0.9v0.4c0.9,0.5,1.3,0.6,1.3,1.7v6.6c0,0.8-0.5,0.8-1.2,0.8h-0.5v0.6
		C157.9,87.5,158.8,87.4,159.7,87.4 M39.9,60.5c-0.6,0-1.2,0.6-1.2,1.2c0,0.6,0.6,1.2,1.2,1.2c0.7,0,1.2-0.6,1.2-1.2
		S40.5,60.5,39.9,60.5 M50.6,64.5c-0.6,0-1.2,0.6-1.2,1.2c0,0.6,0.6,1.2,1.2,1.2c0.7,0,1.2-0.6,1.2-1.2C51.8,65,51.2,64.5,50.6,64.5
		 M51.9,70.7c-1.1,0-2.1,0-3.2-0.1v0.6c2.3,0.1,2.4-0.3,2.4,3.7v7c0,1.7-0.4,4.8-4.6,4.8c-4,0-5-2.8-5-5.7v-8c0-1.7,1-1.7,2.3-1.8
		v-0.6c-1.2,0-2.4,0-3.6,0.1c-1.1,0-2.3,0-3.5-0.1v0.6c1.3,0,2.3,0.1,2.3,1.8v8.6c0.1,4.2,2.6,6.1,6.8,6.1c4.5,0,6.6-2.5,6.6-5.8v-7
		c0-3,0-3.6,2-3.6v-0.6C53.6,70.7,52.8,70.7,51.9,70.7 M63.2,63.5c3,0,5.9-1.8,5.9-4.9c0-5.6-7.8-4.3-7.8-8.8c0-1.8,1.1-3.1,3-3.1
		c1.8,0,3,1,3.2,2.7h0.6l-0.4-3.1c-1-0.1-2-0.4-3.1-0.4c-3.1,0-5.4,1.6-5.4,4.7c0,5.7,7.5,4.4,7.5,8.9c0,1.9-1.5,3.2-3.4,3.2
		c-2.1,0-3.5-1.8-3.9-3.6h-0.6l0.5,3.5C60.5,63.2,61.9,63.5,63.2,63.5 M80.8,62.2c-0.6,0-0.9-0.4-0.9-1.4v-6.7c0-1.3-1.9-2-3.1-2
		c-1,0-1.4,0.3-2.3,0.8c-1.8,0.9-2.9,1.5-2.9,2.8c0,0.2,0.1,0.5,0.5,0.5c0.6,0,1.4-0.3,1.4-1c0-1.1,0.8-1.7,1.9-1.7
		c1.6,0,2.4,0.7,2.4,2.1V57c-5.4,1.8-6.5,2.2-6.6,4.1c0,1.3,1.1,2.3,2.7,2.3c1.6,0,2.7-0.7,3.9-1.8c0,0.9,0.5,1.8,1.6,1.8
		c1,0,1.8-0.7,2.5-1.3l-0.2-0.4C81.5,62,81.2,62.2,80.8,62.2 M75.1,62.3c-1,0-1.8-0.8-1.8-1.7c0-1.8,3.3-2.4,4.6-2.9v3.2
		C77.1,61.6,76.3,62.3,75.1,62.3 M89.1,53.3c2,0,4,2.2,4,4.8c0,2.2-1.1,4.7-3.8,4.7c-1.7,0-2.6-1.5-2.6-2.5v-5.9
		C87.4,53.9,88.2,53.3,89.1,53.3 M86.5,44.6c-0.1,0-0.3,0.1-0.6,0.3c-0.5,0.3-1.6,0.7-2.6,1v0.4c1,0.3,1.3,0.3,1.3,1.9v10.4
		c0,1.4-0.1,2.9-0.4,4.3l0.5,0.3l0.8-0.6c0.7,0.3,1.6,0.8,3.5,0.8c3.6,0,6-3.2,6-6.3c0-2.6-1.8-5.1-4.7-5.1c-1.4,0-2.7,0.9-3.8,1.7
		v-8.8C86.7,44.7,86.7,44.6,86.5,44.6 M106.7,62.2c-0.6,0-0.9-0.4-0.9-1.4v-6.7c0-1.3-1.9-2-3.1-2c-1,0-1.4,0.3-2.3,0.8
		c-1.8,0.9-2.9,1.5-2.9,2.8c0,0.2,0.1,0.5,0.5,0.5c0.6,0,1.4-0.3,1.4-1c0.1-1.1,0.8-1.7,1.9-1.7c1.6,0,2.4,0.7,2.4,2.1v1.6
		c-5.4,1.8-6.5,2.2-6.6,4.1c0,1.3,1.1,2.3,2.7,2.3c1.6,0,2.7-0.8,3.9-1.8c0,0.9,0.5,1.8,1.6,1.8c1,0,1.8-0.7,2.5-1.3l-0.2-0.4
		C107.4,62.1,107,62.2,106.7,62.2 M101,62.4c-1,0-1.8-0.8-1.8-1.7c0-1.8,3.3-2.4,4.6-2.9V61C102.9,61.7,102.2,62.4,101,62.4
		 M110,62.5h-0.5v0.6c0.9,0,1.8,0,2.7,0c0.9,0,1.8,0,2.7,0v-0.6h-0.4c-0.7,0-1.3,0-1.3-0.8v-7.2c0.8-0.5,2.1-1.2,2.9-1.2
		c1.4,0,2.3,0.7,2.3,2.1v6.3c0,0.8-0.5,0.8-1.2,0.8h-0.5v0.6c0.9,0,1.8,0,2.7,0c0.9,0,1.8,0,2.7,0v-0.6h-0.5c-0.7,0-1.3,0-1.3-0.8
		v-6.2c0-1.9-0.8-3.4-2.9-3.4c-1.7,0-2.9,0.8-4.4,1.8v-1.6c0-0.2-0.1-0.2-0.2-0.2c-1.2,0.5-2.2,0.8-3.3,1.2v0.5
		c1.2,0.5,1.5,0.7,1.5,1.6v6.4C111.2,62.5,110.7,62.5,110,62.5 M129.9,61.7c-2.7,0-4.4-2.2-4.4-4.7c0-1.8,1.1-4.2,3.3-4.2
		c2.4,0,2.3,2,3.4,2c0.6,0,1-0.5,1-1.1c0-1.3-2.1-1.7-3.4-1.7c-3.6,0-6.2,2.9-6.2,6.4c0,2.6,2.4,5,5,5c2,0,3.7-1.1,4.9-2.5l-0.4-0.4
		C132,61.2,131.1,61.7,129.9,61.7 M137.7,63.1c0.9,0,1.8,0,2.6,0v-0.6h-0.4c-0.7,0-1.3,0-1.3-0.8v-9.3c0-0.2-0.1-0.3-0.2-0.3
		c-0.2,0-0.3,0-0.5,0.1c-0.1,0.1-1.5,0.5-2.7,0.9v0.4c0.9,0.5,1.3,0.6,1.3,1.7v6.6c0,0.8-0.5,0.8-1.2,0.8H135v0.6
		C135.9,63.1,136.8,63.1,137.7,63.1"/>
</g>
</svg>
